<?xml version="1.0" standalone="no"?>
<!DOCTYPE svg PUBLIC "-//W3C//DTD SVG 20010904//EN"
 "http://www.w3.org/TR/2001/REC-SVG-20010904/DTD/svg10.dtd">
<svg version="1.0" xmlns="http://www.w3.org/2000/svg"
 width="512.000000pt" height="512.000000pt" viewBox="0 0 512.000000 512.000000"
 preserveAspectRatio="xMidYMid meet">
<metadata>
Created by potrace 1.14, written by Peter Selinger 2001-2017
</metadata>
<g transform="translate(0.000000,512.000000) scale(0.100000,-0.100000)"
fill="#000000" stroke="none">
<path d="M0 2560 l0 -2560 1435 0 c789 0 1435 2 1435 5 0 19 -159 420 -260
655 -115 270 -192 429 -243 504 -84 125 -141 201 -261 346 -75 91 -139 176
-143 188 -6 27 44 200 64 220 24 24 13 197 -22 339 -9 34 -15 65 -14 70 1 4 0
10 -1 13 -1 3 -3 19 -6 35 -3 26 -2 27 6 8 l9 -23 35 23 c37 24 56 61 56 111
l0 31 -13 -25 c-15 -32 -91 -70 -137 -70 -65 1 -157 55 -207 123 -28 38 -53
122 -53 179 0 100 41 160 119 173 40 7 71 37 71 69 0 10 6 13 16 9 13 -5 15
-2 9 15 -4 13 -2 22 4 22 6 0 11 -8 11 -18 0 -10 3 -21 6 -25 8 -8 34 3 34 15
0 6 -8 4 -17 -3 -9 -8 -14 -9 -10 -2 4 6 -2 28 -14 47 -12 20 -16 36 -10 36 6
0 11 -8 11 -17 0 -15 2 -16 10 -3 8 12 10 9 10 -14 0 -21 4 -27 15 -22 10 3
15 -1 15 -11 0 -9 3 -14 6 -10 8 8 44 -25 44 -40 0 -7 5 -13 10 -13 6 0 10 6
10 14 0 8 7 22 17 31 14 14 15 26 7 80 -6 35 -6 61 -2 59 4 -3 8 6 8 20 0 14
5 26 10 26 6 0 10 8 10 18 0 10 14 34 30 52 17 18 30 37 30 42 0 4 7 8 15 8 9
0 20 10 25 23 8 20 9 20 9 2 1 -14 8 -8 25 22 19 33 24 57 25 115 0 54 -2 69
-10 58 -9 -12 -10 -12 -5 3 3 10 6 28 6 40 0 18 2 19 11 7 7 -11 9 -6 7 22 -3
45 9 60 28 34 13 -18 14 -18 14 -2 0 24 10 19 64 -32 25 -24 48 -55 52 -70 3
-15 9 -36 14 -47 8 -18 9 -17 9 8 1 25 3 27 16 13 8 -8 15 -26 15 -41 0 -15 4
-24 10 -20 6 4 10 -8 10 -28 0 -67 10 -96 34 -94 48 5 125 87 129 138 1 22 13
25 20 7 4 -9 8 -9 14 -3 11 14 43 15 43 1 0 -6 5 -4 11 4 9 12 10 12 5 -3 -3
-10 -6 -24 -6 -30 0 -7 -4 -6 -10 3 -8 13 -10 13 -10 -2 0 -24 -23 -28 -41 -6
-15 17 -17 17 -23 2 -4 -10 -1 -21 6 -26 10 -6 8 -8 -4 -8 -25 0 -22 -17 5
-26 51 -17 127 2 127 32 0 8 -4 13 -9 10 -16 -10 -19 18 -5 46 12 22 39 41 66
43 3 0 21 11 40 25 18 13 38 25 44 25 14 0 37 25 51 55 11 24 12 25 12 3 1
-29 4 -29 37 4 17 16 29 23 31 16 3 -7 11 -9 19 -6 8 3 14 0 14 -7 0 -7 8 -9
20 -5 12 4 20 2 20 -5 0 -6 5 -8 10 -5 6 3 10 1 10 -5 0 -6 4 -9 9 -6 5 4 11
1 13 -6 6 -17 27 -1 39 28 14 39 45 14 80 -64 43 -95 42 -96 -63 -148 -65 -32
-54 -78 13 -55 54 19 107 14 120 -11 6 -11 15 -76 19 -142 6 -96 14 -139 38
-206 46 -128 56 -195 49 -328 -7 -136 -24 -208 -74 -312 -20 -41 -51 -113 -69
-159 -31 -79 -74 -141 -98 -141 -6 0 -24 -7 -39 -15 -15 -8 -47 -17 -70 -20
-140 -19 -206 -35 -201 -49 4 -9 -11 -13 -54 -13 -71 -1 -127 -12 -115 -23 15
-14 82 -31 171 -45 l87 -13 27 31 c15 18 28 38 28 46 0 8 3 11 7 8 4 -4 5 -32
4 -62 -3 -71 21 -174 71 -299 23 -59 41 -124 45 -161 l6 -62 -68 -8 c-38 -4
-79 -12 -92 -18 -18 -8 -27 -7 -40 5 -17 16 -41 22 -73 19 -13 -1 -13 -2 0
-12 27 -19 -119 0 -203 26 -43 14 -86 25 -96 25 -17 0 -124 30 -169 47 -12 5
-14 1 -9 -25 6 -31 5 -32 -28 -32 -19 0 -35 -2 -35 -5 0 -3 12 -29 26 -57 14
-28 32 -76 40 -107 8 -31 30 -79 49 -108 21 -32 32 -59 29 -70 -5 -14 -4 -15
4 -4 8 11 28 -22 86 -140 42 -85 99 -185 127 -223 l51 -68 14 27 c9 18 14 59
14 117 0 151 40 438 61 438 4 0 5 -7 2 -17 -4 -9 -2 -14 3 -11 23 14 50 -12
66 -63 24 -73 79 -268 85 -301 3 -16 9 -28 14 -28 5 0 5 -7 2 -17 -4 -10 -2
-14 4 -10 5 3 20 -19 33 -51 27 -67 39 -84 54 -79 6 3 18 -2 27 -10 15 -12 19
-10 36 19 10 18 27 52 37 76 11 23 22 42 26 42 14 0 69 -265 122 -587 l23
-143 858 0 857 0 0 2560 0 2560 -2560 0 -2560 0 0 -2560z m2533 950 c-3 -12
-8 -19 -11 -16 -5 6 5 36 12 36 2 0 2 -9 -1 -20z m-14 -117 c-2 -32 -15 -68
-21 -58 -8 14 2 75 13 75 5 0 9 -8 8 -17z m-492 -255 c-3 -7 -5 -2 -5 12 0 14
2 19 5 13 2 -7 2 -19 0 -25z m-80 -50 c-3 -7 -5 -2 -5 12 0 14 2 19 5 13 2 -7
2 -19 0 -25z m71 -28 c0 -22 -4 -40 -9 -40 -5 0 -9 18 -9 40 0 22 4 40 9 40 6
0 9 -18 9 -40z m-161 -62 c-3 -7 -5 -2 -5 12 0 14 2 19 5 13 2 -7 2 -19 0 -25z"/>
<path d="M3211 3594 c0 -11 3 -14 6 -6 3 7 2 16 -1 19 -3 4 -6 -2 -5 -13z"/>
<path d="M3234 3181 c-17 -7 -20 -16 -16 -36 6 -32 31 -43 92 -40 36 1 46 6
48 21 1 11 -3 27 -10 36 -15 20 -84 31 -114 19z"/>
<path d="M2698 3173 c-32 -5 -33 -8 -9 -48 23 -39 69 -42 89 -5 13 24 13 24 6
-9 -6 -32 -5 -34 10 -19 8 9 24 14 35 11 31 -8 33 13 5 46 -26 32 -53 36 -136
24z"/>
<path d="M2591 3139 c-67 -24 -69 -25 -26 -27 24 -1 43 6 61 23 15 14 25 25
23 24 -2 0 -28 -9 -58 -20z"/>
<path d="M3155 3121 c-6 -11 9 -23 19 -14 9 9 7 23 -3 23 -6 0 -12 -4 -16 -9z"/>
<path d="M2048 2913 c7 -3 16 -2 19 1 4 3 -2 6 -13 5 -11 0 -14 -3 -6 -6z"/>
<path d="M2012 2875 c12 -27 34 -35 24 -9 -3 9 -6 20 -6 25 0 5 -7 9 -15 9
-12 0 -13 -4 -3 -25z"/>
<path d="M1750 2835 c-19 -22 -8 -25 13 -3 9 10 13 18 8 18 -5 0 -14 -7 -21
-15z"/>
<path d="M3029 2723 c-13 -15 -11 -16 11 -10 14 4 33 7 43 7 9 0 17 5 17 10 0
17 -57 11 -71 -7z"/>
<path d="M3215 2730 c-3 -5 -27 -16 -53 -24 -26 -8 -40 -15 -32 -15 8 -1 27
-7 42 -15 24 -13 28 -12 44 5 9 10 14 19 9 19 -4 0 3 9 16 20 l24 19 -22 1
c-12 0 -25 -4 -28 -10z"/>
<path d="M3190 2501 c-8 -10 -24 -23 -35 -28 -16 -9 -11 -11 30 -12 28 0 63
-1 79 -3 35 -4 46 17 15 27 -13 4 -29 14 -37 21 -18 19 -34 17 -52 -5z"/>
<path d="M2955 2465 c-16 -8 -46 -14 -66 -15 -20 0 -42 -7 -49 -15 -10 -12 -9
-15 6 -15 11 0 39 5 64 11 25 6 83 17 130 24 84 13 84 13 28 14 -31 1 -62 3
-70 5 -7 2 -26 -2 -43 -9z"/>
<path d="M2920 1430 c-6 -11 -15 -18 -20 -15 -6 4 -7 -1 -3 -11 5 -13 3 -15
-7 -9 -9 5 -11 4 -6 -3 4 -7 1 -12 -9 -12 -9 0 -14 -4 -11 -9 4 -5 0 -12 -6
-14 -7 -3 -8 -6 -2 -6 6 -1 20 9 31 22 26 28 57 77 50 77 -4 0 -11 -9 -17 -20z"/>
</g>
</svg>
